<svg width="61" height="61" xmlns="http://www.w3.org/2000/svg" xmlns:xlink="http://www.w3.org/1999/xlink" xmlns:svgjs="http://svgjs.com/svgjs" fill="#180027"><svg xmlns="http://www.w3.org/2000/svg" width="61" height="61"><path paint-order="stroke fill markers" fill-rule="evenodd" d="M30.5 60.333C14.022 60.333.665 46.976.665 30.5.666 14.023 14.023.667 30.499.667c16.477 0 29.834 13.356 29.834 29.833 0 16.476-13.357 29.833-29.834 29.833zm0-2.841c14.907 0 26.992-12.084 26.992-26.992 0-14.908-12.085-26.992-26.993-26.992-14.907 0-26.992 12.084-26.992 26.992 0 14.908 12.085 26.992 26.992 26.992zm9.873-39.968l-14.957 7.913-7.901 14.942c-1.392 2.637.483 4.495 3.108 3.106l14.942-7.91 7.914-14.946c1.397-2.636-.48-4.497-3.106-3.105zM27.52 27.539l12.624-6.68-6.677 12.613-12.616 6.677 6.669-12.61z"/></svg></svg>