<svg width="16" height="16" xmlns="http://www.w3.org/2000/svg" xmlns:xlink="http://www.w3.org/1999/xlink" xmlns:svgjs="http://svgjs.com/svgjs" fill="#fff"><svg xmlns="http://www.w3.org/2000/svg" width="16" height="16"><path paint-order="stroke fill markers" fill-rule="evenodd" d="M2.4 2.4C3.866.8 5.733 0 8 0c2.266 0 4.133.8 5.6 2.4C15.2 3.867 16 5.733 16 8c0 2.267-.8 4.133-2.4 5.6C12.133 15.2 10.266 16 8 16c-2.267 0-4.134-.8-5.6-2.4C.933 12 0 10.267 0 8c0-2.267.8-4.133 2.4-5.6zm6.667 12c.533 0 1.199-.4 1.999-1.2.534-.933.933-1.867.933-2.8 0-.667-.266-1.2-.666-1.6C10.8 8.267 10.266 8 9.6 8H8.266c-.4 0-.8-.133-1.2-.267-.266-.266-.4-.533-.4-.933 0-.267.134-.4.267-.534.133-.133.4-.266.533-.266s.534.133.667.4c.266.133.4.267.533.267.134 0 .4 0 .533-.134.134-.133.134-.4.134-.533 0-.4-.266-.933-.667-1.333.4-.8.667-1.6.667-2.534 0-.133-.134-.266-.266-.266C8.667 1.733 8.266 1.6 8 1.6c-1.467.133-2.534.4-3.468 1.067-.8.666-1.199 1.6-1.199 2.666 0 1.067.4 1.867 1.067 2.534a3.641 3.641 0 0 0 2.533 1.066v.534c0 .533.133.933.533 1.333.267.4.667.666 1.2.8V14c0 .133 0 .133.134.267.133.133.133.133.267.133z"/></svg></svg>